<svg id="Layer_1" data-name="Layer 1" xmlns="http://www.w3.org/2000/svg" viewBox="0 0 512 511.27"><defs><style>.cls-1{fill:#f27f7a;}.cls-2{fill:#fff;}.cls-3{fill:#12100b;}</style></defs><title>linkedin</title><path class="cls-1" d="M511.74,254.75c1.55,33.7-3.79,68.43-17.79,99.59-13.79,31.33-35.17,58.28-58.6,82.23-23.77,23.72-51.33,44.19-82.53,57.87-8,2.92-15.81,6.27-23.94,8.72-8.24,2.07-16.46,4.31-24.8,5.81-8.44,1-16.88,1.95-25.3,2.3l-25.25-.64c-33.37-3.21-66.06-8.76-97.83-19.73-7.85-2.88-15.5-6.37-23.18-9.79-7.4-4-14.55-8.41-21.65-12.88-6.79-4.94-13.37-10.17-20-15.25-6.18-5.68-12.11-11.63-18.12-17.42a281.5,281.5,0,0,1-53.34-83.81C6.83,321,.63,287.88,0,254.75l1-24.86c.91-8.24,2.31-16.44,3.32-24.7C5.8,197,7.86,188.93,9.64,180.77c2.3-8,5.14-15.87,7.55-23.92,11.33-31.51,29.06-61.32,53-85.43,23.8-24.27,53.45-42.4,85-54,8-2.53,16-5.35,24-7.55,8.18-1.84,16.29-4,24.49-5.51l24.84-3.18,25-1.13C319.89-.31,388,25.11,434,74.29c46.44,48.28,73.11,113.34,76.35,180.46Zm-31,0c1.83-29.83-3.7-60.07-14.92-87.93a216.17,216.17,0,0,0-50.49-73.87L398.42,78.19l-18.23-13C373.79,61.34,367.5,57.3,361,53.6c-6.72-3.23-13.31-6.77-20.12-9.82a224.19,224.19,0,0,0-87.38-18.31A205.37,205.37,0,0,0,166.64,45c-27,12.57-51,30.34-72,50.85-20.83,20.72-39,44.57-51.9,71.61-2.89,6.87-6,13.73-8.44,20.8-2,7.2-4.36,14.37-6.19,21.66-1.29,7.4-2.57,14.83-3.64,22.28L23,254.75c-1,60.4,24.55,121.1,69,161.46l17.1,14.45,18.12,13c6.49,3.65,12.68,7.76,19.08,11.54l19.75,10.52c26.76,13.33,57.4,20.25,87.4,17.15l22.19-3c7.27-1.63,14.46-3.34,21.68-4.67l21.28-5.71,20.78-7.27c27.35-10.54,53.45-26,74.52-47,21.35-20.89,35.87-47.6,46.3-74.82s17.42-56,19.08-85.63Z" transform="translate(0 0)"/><g id="LinkedIn"><path class="cls-2" d="M365.89,272.07v85.11H316.52V277.73c0-20-7.12-33.55-25-33.55-13.66,0-21.72,9.19-25.32,18-1.3,3.19-1.69,7.65-1.69,12v82.9H215.21s.66-134.51,0-148.44h49.33v21c-.07.17-.21.32-.28.51h.28v-.51c6.59-10.11,18.27-24.52,44.49-24.52C341.57,205.25,365.89,226.46,365.89,272.07ZM163.56,137.16c-16.88,0-27.93,11.07-27.93,25.67,0,14.21,10.73,25.65,27.29,25.65h.3c17.25,0,27.94-11.45,27.94-25.65C190.83,148.23,180.48,137.16,163.56,137.16Zm-25,220h49.34V208.72H138.58Z" transform="translate(0 0)"/><path class="cls-3" d="M373.54,272.07c.32,7.09.62,14.18.81,21.28s.36,14.18.32,21.28-.26,14.18-.59,21.28-.66,14.18-.85,21.28v.43a7.11,7.11,0,0,1-7.3,6.92h0c-4.11-.13-8.23-.17-12.34-.21s-8.23,0-12.34.05-8.23.11-12.34.25l-12.34.35a7.57,7.57,0,0,1-7.78-7.35v-.45c-.35-10.63-.59-21.27-.51-31.9,0-5.32.09-10.63.35-16s.67-10.63,1.08-16,.82-10.66,1-15.93a43.65,43.65,0,0,0-1.52-14.2c-1.35-4.33-3.67-8-6.81-9.88a13.67,13.67,0,0,0-5.19-2l-.7-.15c-.24,0-.5,0-.75-.08l-1.5-.15c-.52,0-1.05,0-1.58,0a14.87,14.87,0,0,0-1.56,0,20.36,20.36,0,0,0-10.84,3.79,24.63,24.63,0,0,0-7.53,9.55l-.18.36-.12.26c-.08.15-.14.35-.22.54-.14.39-.27.84-.39,1.31a27.2,27.2,0,0,0-.55,3.16c-.13,1.13-.22,2.31-.28,3.51l-.13,3.91-.51,16c-.31,10.63-.34,21.27-.43,31.9s-.11,21.27-.09,31.9a5.26,5.26,0,0,1-5.22,5.27h0c-8.22.06-16.44.06-24.66.2l-12.33.17c-4.11,0-8.22.17-12.33.25a5.77,5.77,0,0,1-5.88-5.66v-.26c-.26-12.37-.87-24.74-1.35-37.11s-.72-24.74-.67-37.1.37-24.73.84-37.09l.64-18.53c.1-3.08.15-6.17.21-9.24l.06-4.6,0-4.45v-.37a6.08,6.08,0,0,1,6-6.12h.16q6.17.12,12.33.15l12.33,0,12.33-.09,12.33-.13a6.16,6.16,0,0,1,6.22,6.09h0v.13l.22,21a6.09,6.09,0,0,1-.41,2.26l0,.07a7.31,7.31,0,0,1-.53,1.09l-.21.34a5.1,5.1,0,0,0,.53-1.1l-6.08-8.58h.28l-6.45,6.45v-.51a6.22,6.22,0,0,1,1-3.39l.08-.13a64.69,64.69,0,0,1,13.81-16,52.34,52.34,0,0,1,9.25-5.82l2.5-1.09,1.25-.54,1.28-.45,2.57-.87c.86-.26,1.74-.46,2.61-.69a70.4,70.4,0,0,1,41.31,3,57.21,57.21,0,0,1,17.84,11.5,60.34,60.34,0,0,1,12.31,17.1c.8,1.56,1.45,3.16,2.14,4.76s1.25,3.23,1.76,4.87a90.32,90.32,0,0,1,2.65,9.93c.33,1.67.68,3.34.91,5l.4,2.51L372,262c.42,3.36.62,6.71.84,10.07Zm-14.65,0c0-1.5.15-3,.14-4.51s0-3-.09-4.49a77.16,77.16,0,0,0-.82-8.88,67.72,67.72,0,0,0-1.86-8.61c-.36-1.42-.88-2.77-1.33-4.15s-1-2.7-1.66-4A44.66,44.66,0,0,0,349,230a43.08,43.08,0,0,0-5.45-6.43,41.77,41.77,0,0,0-14.16-8.88,53.49,53.49,0,0,0-16.8-3.19,57.4,57.4,0,0,0-17,1.83c-.66.19-1.34.36-2,.57l-1.93.71-1,.35-.93.43-1.85.85a47.09,47.09,0,0,0-6.84,4.39,52.61,52.61,0,0,0-11.24,12.63l1-3.52v.63a6.39,6.39,0,0,1-6.45,6.33h-.38a6.41,6.41,0,0,1-6.36-6.47,6.56,6.56,0,0,1,.38-2.11,7.43,7.43,0,0,1,.81-1.62,5.22,5.22,0,0,0-.45.92l-.43,2.33.22-21,6.22,6.22-12.33-.13-12.33-.09-12.33,0q-6.17,0-12.33.15l6.19-6.49,1.45,37.39c.49,12.38.82,24.76.78,37.13s-.29,24.75-.88,37.12-1.27,24.74-1.65,37.11l-5.89-5.92c4.11.08,8.22.21,12.33.25l12.33.17c8.22.14,16.44.15,24.66.2l-5.27,5.27c0-10.63,0-21.27-.09-31.9s-.11-21.27-.43-31.9l-.51-16-.12-4.06c0-1.46,0-2.94.08-4.46a40.6,40.6,0,0,1,.54-4.74c.15-.83.34-1.67.58-2.55.13-.45.26-.88.42-1.35l.24-.67.22-.55a36.14,36.14,0,0,1,11.65-15.48,30.32,30.32,0,0,1,9-4.69,31,31,0,0,1,9.89-1.47,19.19,19.19,0,0,1,2.42.12c.8.07,1.6.12,2.4.23l2.44.46c.41.09.81.15,1.21.26l1.22.38a26.4,26.4,0,0,1,9.12,4.79,26.72,26.72,0,0,1,6.55,7.72,36.69,36.69,0,0,1,3.66,8.7,76.16,76.16,0,0,1,2.56,17.34c.24,5.36.63,10.65,1,16s.82,10.63,1.08,16,.35,10.63.35,16c.07,10.63-.17,21.27-.51,31.9l-7.79-7.79,12.34.35c4.11.14,8.23.19,12.34.25s8.23,0,12.34.05,8.23-.08,12.34-.21l-7.35,7.35c-.19-7.09-.57-14.18-.85-21.28s-.53-14.18-.59-21.28.09-14.18.32-21.28.48-14.18.81-21.28Z" transform="translate(0 0)"/><path class="cls-3" d="M163.56,144.82c-.7.24-1.38.43-2.06.62s-1.3.46-1.95.63-1.23.44-1.86.57-1.22.28-1.85.38-1.26.16-1.89.26c-.32,0-.66.05-1,.11l-.95.2c-.31.09-.65.14-.95.25s-.58.25-.87.39a5.88,5.88,0,0,0-1.55,1.06,8.51,8.51,0,0,0-2.17,3,4.25,4.25,0,0,0-.35.85l-.31.85c-.2.56-.31,1.16-.52,1.7a17.38,17.38,0,0,1-.54,1.67,9,9,0,0,1-.63,1.69,9.09,9.09,0,0,1-.93,1.75l-1.06,1.93a9.74,9.74,0,0,0-.65,2.09,6.07,6.07,0,0,0,.81,4c.41.58.83,1.14,1.27,1.67a18.31,18.31,0,0,1,2.35,3.07c.38.5.64,1.09,1,1.59s.68,1.11,1.1,1.61a12.93,12.93,0,0,0,1.26,1.58l.71.75a8.5,8.5,0,0,0,.8.65c.27.21.55.43.83.63s.61.34.92.51l.94.48c.32.15.66.25,1,.39a20.54,20.54,0,0,0,8.68,1.37,16.92,16.92,0,0,0,8.39-2.44l.88-.57.79-.67.78-.63c.24-.24.47-.47.7-.7s.47-.43.71-.63.42-.46.65-.66.45-.41.68-.6.41-.43.63-.63.46-.37.66-.58.41-.41.62-.62c.46-.37.84-.81,1.29-1.22a25.24,25.24,0,0,0,2.57-2.72,17.58,17.58,0,0,0,1.1-1.63,16.45,16.45,0,0,0,.82-1.83,19.17,19.17,0,0,0,.49-2c.09-.66.13-1.33.18-2s-.12-1.37-.17-2-.3-1.36-.45-2-.44-1.3-.64-1.95-.53-1.23-.77-1.85-.62-1.16-1-1.71c-.19-.26-.37-.53-.55-.8a7.69,7.69,0,0,0-.5-.82,26.83,26.83,0,0,0-2.29-3.11,14,14,0,0,0-6.69-4.44,15.21,15.21,0,0,0-8.57-.11Zm0-14.65a92.82,92.82,0,0,1,12.25,3.17,41.22,41.22,0,0,1,11.48,6.1,26,26,0,0,1,4.69,4.82,24.93,24.93,0,0,1,1.74,2.88c.47,1,.9,2,1.34,3.06s.71,2.09,1,3.14.46,2.13.63,3.19.25,2.13.34,3.19l.14,3.23c-.05,1.09,0,2.2-.11,3.29l-.31,3.25c-.19,1.08-.29,2.19-.51,3.29s-.43,2.22-.76,3.32a25.64,25.64,0,0,1-2.72,6.42,18.55,18.55,0,0,1-2.08,2.86c-.39.44-.78.89-1.19,1.31s-.87.8-1.32,1.17-.91.75-1.38,1.1-1,.63-1.49.93-1,.58-1.52.85-1.06.45-1.6.66-1.07.41-1.61.59l-1.65.42-1.63.38-1.64.25a72.8,72.8,0,0,1-12.45.78,49.71,49.71,0,0,1-12.14-1.9c-.5-.16-1-.29-1.51-.47l-1.48-.6c-.49-.2-1-.38-1.49-.59s-1-.46-1.47-.68a31.21,31.21,0,0,1-2.92-1.48,23,23,0,0,1-2.84-1.76,20.94,20.94,0,0,1-4.88-4.7,16.62,16.62,0,0,1-1.75-2.92,19.45,19.45,0,0,1-1-3.24c-.22-1.11-.34-2.23-.54-3.31a58,58,0,0,0-1.17-6.35c-.21-1-.55-2.11-.87-3.2s-.57-2.21-.79-3.35a19.09,19.09,0,0,1-.14-3.48,22.05,22.05,0,0,1,.7-3.44,26,26,0,0,1,1.32-3.28,26.67,26.67,0,0,1,4.1-5.75c.81-.85,1.57-1.72,2.44-2.48s1.65-1.6,2.54-2.31,1.71-1.51,2.61-2.19,1.74-1.5,2.67-2.16l1.38-1.07c.47-.35,1-.64,1.44-1l1.49-.9a21.3,21.3,0,0,1,4.8-1.77,17.51,17.51,0,0,1,3.34-.43,26.58,26.58,0,0,1,3.31,0c1.09.12,2.17.23,3.23.4Z" transform="translate(0 0)"/><path class="cls-3" d="M143.52,351.83l.48-.07c4.07-.59,8-1.2,11.75-1.69,1.88-.25,3.72-.47,5.53-.64s3.55-.24,5.3-.26c3.49-.07,6.91.2,10.46.47s7.21.42,10.9.4l-7.13,7.13c0-6.19-.41-12.37-.8-18.56a160,160,0,0,1-.21-18.56c.36-6.19,1.86-12.37,2.36-18.56a74.94,74.94,0,0,0,.17-9.28c-.15-3.09-.49-6.19-.82-9.28-1.44-12.37.15-24.74.75-37.11.28-6.19.3-12.37.4-18.56l0-9.28-.11-9.28,5.36,5.36-12.34.35q-6.17.24-12.34.8c-4.11.36-8.22.8-12.34,1.1s-8.22.5-12.34.55l8.16-8.16c.08,5.94-.19,11.88-.66,17.87s-1,12-1.35,18.07-.39,12-.35,18,.16,11.87.16,17.81l0,8.9c0,3-.16,6-.28,9l-.86,18.35c-.25,6.12-.32,12.14-.33,18.09C143.11,340.65,143.21,346.38,143.52,351.83Zm-9.91,10.82,0-.53c.32-6.8.42-13.31.43-19.75s-.08-12.77-.33-19l-.86-18.77c-.12-3.15-.24-6.31-.28-9.51l0-9.66c0-6.43.1-12.88.16-19.3s-.06-12.77-.35-19.11-.87-12.66-1.35-19-.75-12.82-.66-19.24v-.2a8.06,8.06,0,0,1,8.16-8c4.11,0,8.22.21,12.34.55s8.22.74,12.34,1.1,8.22.65,12.34.8l12.34.35h.22a5.3,5.3,0,0,1,5.14,5.35l-.11,9.28,0,9.28c.1,6.19.12,12.37.4,18.56.61,12.37,2.19,24.74.75,37.11-.33,3.09-.67,6.19-.82,9.28a74.94,74.94,0,0,0,.17,9.28c.5,6.19,2,12.37,2.36,18.56a160,160,0,0,1-.21,18.56c-.39,6.19-.81,12.37-.8,18.56v0a7.1,7.1,0,0,1-7.1,7.1h0c-4.53,0-9.09.14-13.77.4s-9.48.54-14.21.47c-2.37,0-4.73-.11-7-.26s-4.58-.39-6.81-.64C141.78,363.81,137.63,363.22,133.61,362.65Z" transform="translate(0 0)"/></g></svg>