<svg id="Layer_1" data-name="Layer 1" xmlns="http://www.w3.org/2000/svg" viewBox="0 0 512 512"><defs><style>.cls-1,.cls-2,.cls-3{fill:none;stroke:#fff;stroke-miterlimit:10;}.cls-1{stroke-width:34.61px;}.cls-2{stroke-width:20.63px;}.cls-3{stroke-width:23.96px;}</style></defs><title>logo</title><polygon class="cls-1" points="70.79 43 442.21 43 442.21 347.86 251.84 469 70.79 347.86 70.79 43"/><path class="cls-2" d="M210.25,238.27h18.68l27.89,55.78L285,238.27H303.4l-34.58,67.07,37.93,71.06,71.67-139.24h21.19L315.95,394.33H298.66l-41.55-77.7-41.83,77.7H198L114.6,237.16h20.64l72,139.24,37.65-71.06Z"/><path class="cls-3" d="M121.21,193.54A107.52,107.52,0,0,0,139.47,198a150.49,150.49,0,0,0,25.06,1.89q17.46,0,28-3.35t16-9.89a33,33,0,0,0,7.11-16.08,131.4,131.4,0,0,0,1.62-21.75V86.93h22.63v61.9a122.52,122.52,0,0,1-2.42,25.36,39.35,39.35,0,0,1-10.18,19.52q-7.76,8.08-22.63,12.55t-40.09,4.47q-29.1,0-49.79-7.57Z"/><path class="cls-3" d="M399.59,203.17q-20.69,7.57-49.79,7.57-25.22,0-40.09-4.47t-22.63-12.55A39.35,39.35,0,0,1,276.9,174.2a122.52,122.52,0,0,1-2.42-25.36V86.93H297.1v61.9a131.4,131.4,0,0,0,1.62,21.75,33,33,0,0,0,7.11,16.08q5.5,6.54,16,9.89t28,3.35A150.49,150.49,0,0,0,374.86,198a107.52,107.52,0,0,0,18.27-4.47Z"/></svg>