<svg id="Layer_1" data-name="Layer 1" xmlns="http://www.w3.org/2000/svg" viewBox="0 0 512 511.27"><defs><style>.cls-1{fill:#f27f7a;}.cls-2{fill:#fff;}.cls-3{fill:#1d1d1b;}</style></defs><title>mail</title><path class="cls-1" d="M512.46,255c1.55,33.7-3.79,68.43-17.8,99.59-13.79,31.33-35.17,58.28-58.6,82.23C412.3,460.55,384.74,481,353.54,494.7c-8,2.92-15.81,6.27-23.94,8.72-8.24,2.07-16.46,4.31-24.8,5.81-8.44,1-16.88,1.95-25.3,2.3l-25.25-.64c-33.37-3.21-66.06-8.76-97.82-19.73-7.85-2.88-15.5-6.37-23.18-9.79-7.39-4-14.55-8.41-21.65-12.88-6.79-4.94-13.37-10.17-20-15.25-6.18-5.68-12.11-11.63-18.12-17.42A281.48,281.48,0,0,1,20.1,352C7.55,321.26,1.35,288.14.72,255l1-24.86C2.62,221.9,4,213.71,5,205.45c1.49-8.17,3.55-16.26,5.33-24.42,2.3-8,5.14-15.87,7.55-23.92,11.33-31.51,29.05-61.32,53-85.43,23.8-24.27,53.45-42.4,85-54,8-2.53,16-5.35,24-7.55,8.18-1.84,16.29-4,24.49-5.51l24.84-3.18,25-1.13C320.61,0,388.73,25.37,434.71,74.55c46.44,48.28,73.11,113.34,76.35,180.46Zm-31,0c1.83-29.83-3.7-60.07-14.92-87.93a216.18,216.18,0,0,0-50.49-73.87L399.14,78.45l-18.23-13c-6.4-3.82-12.69-7.86-19.16-11.57C355,50.63,348.44,47.09,341.63,44a224.2,224.2,0,0,0-87.38-18.31,205.37,205.37,0,0,0-86.89,19.5c-27,12.57-51,30.34-72,50.85-20.83,20.72-39,44.57-51.9,71.61-2.89,6.87-6,13.73-8.44,20.8-2,7.2-4.36,14.37-6.19,21.66-1.29,7.4-2.57,14.83-3.64,22.28L23.74,255c-1,60.4,24.56,121.1,69,161.46l17.1,14.45L128,444c6.49,3.65,12.68,7.76,19.08,11.54L166.85,466c26.76,13.33,57.4,20.25,87.4,17.15l22.2-3c7.27-1.63,14.46-3.34,21.68-4.67l21.28-5.71,20.78-7.27c27.35-10.54,53.45-26,74.51-47,21.35-20.89,35.87-47.6,46.3-74.82s17.42-56,19.08-85.63Z" transform="translate(-0.72 -0.26)"/><polygon class="cls-2" points="380.02 346.9 124.8 346.9 124.8 162.09 380.02 162.09 380.02 170.89 380.02 346.9"/><path class="cls-3" d="M385.69,352.59c-20.78,1-42,1.85-64,1.53-22.27-.47-44.18-.8-65.73-.19s-43.19,1.53-65.08,1.26c-22-.58-43.8-3.14-65.33-2.33a5.47,5.47,0,0,1-5.67-5.26v-.42c-.45-15.4-1.46-30.8-1.31-46.2s.58-30.8,1-46.2.55-30.8.58-46.2.14-30.8-.08-46.2a5.37,5.37,0,0,1,5.29-5.44h.15c21.27-.15,42.54-.42,63.8-1.45,21.27-.84,42.54-1.6,63.8-1.14,21.27.16,42.54,1.37,63.8,1.69s42.54.25,63.8.08a6.21,6.21,0,0,1,6.26,6.16h0v.1c.12,15.33.37,31.5.27,47.25l-.92,47.35c-.2,15.81-.75,31.37-.73,47.26-.16,15.79-.1,31.72.07,47.9Zm-9.9-10.82c.16-14.48.22-29.19.07-44.05,0-14.92-.53-30.16-.73-45.15l-.92-45.06c-.1-15,.15-29.68.27-45.16l6.26,6.26c-21.27-.17-42.54-.35-63.8.08s-42.54,1.52-63.8,1.69c-21.27.46-42.54-.3-63.8-1.14-21.27-1-42.54-1.29-63.8-1.45l5.44-5.44c-.22,15.4-.2,30.8-.08,46.2s.15,30.8.58,46.2,1,30.8,1,46.2-.86,30.8-1.31,46.2l-5.68-5.68c21,.8,41.74-1.76,62.27-2.33,20.65-.28,41.5.53,62.53,1.26s41.61.28,61.88-.19,41.5.58,63.11,1.54Z" transform="translate(-0.72 -0.26)"/><polygon class="cls-2" points="124.8 162.09 380.02 162.09 252.41 254.5 124.8 162.09"/><path class="cls-3" d="M118.57,160c10-.49,20.12-1.07,31-1.36s22.81-.1,33.76-.32c22.13-.13,42.19-2.72,65.14-2.39,11.5.3,23.33,1.66,34.17,1.43,11,0,21.34-1.64,32.38-1.72,22.07-.24,44.14,1.69,65.74,1.37a5.34,5.34,0,0,1,5.42,5.26,5.4,5.4,0,0,1-2.28,4.46c-10.75,7.53-21.27,15.4-31.78,23.27s-20.71,16.17-30.87,24.52-20.75,16.12-31.54,23.6c-10.92,7.3-22.12,14.23-32.91,21.71l-.24.17a6,6,0,0,1-7.06-.17c-10.81-8.28-22-16.17-33.2-24.27s-22.62-16.36-33-25c-21.12-17.19-41.65-33.41-64.38-50.34Zm13.89,4.72c19.74,13.81,41.63,28.32,62.95,41.87,10.85,6.78,20.65,13.92,30.77,21.21s20.15,14.81,30.61,21.93h-7.3c10.48-7.92,20.55-16.39,30.9-24.49,10.47-7.92,21.06-15.69,32.26-22.61s22.24-14.05,32.93-21.68,21.51-15.06,32-22.93l3.15,9.71c-20.93-.32-41.4,1.61-61.87,1.37-10.23-.09-21.1-1.73-31.42-1.72-10.42-.23-19.86,1.13-29.63,1.43-19.59.33-42.07-2.25-62.47-2.39-10.31-.22-19.65,0-30-.32l-32.5-1.38Z" transform="translate(-0.72 -0.26)"/></svg>