<svg id="Layer_1" data-name="Layer 1" xmlns="http://www.w3.org/2000/svg" viewBox="0 0 512 511.27"><defs><style>.cls-1{fill:#f27f7a;}.cls-2{fill:#fff;stroke:#000;stroke-miterlimit:10;stroke-width:9.91px;}</style></defs><title>pinterest</title><path class="cls-1" d="M510.44,253.68c1.55,33.7-3.79,68.43-17.79,99.59-13.79,31.33-35.17,58.28-58.6,82.23-23.77,23.72-51.33,44.19-82.53,57.87-8,2.92-15.81,6.27-23.94,8.72-8.24,2.07-16.46,4.31-24.8,5.81-8.44,1-16.88,1.95-25.3,2.3l-25.25-.64c-33.37-3.21-66.06-8.76-97.83-19.73-7.85-2.88-15.5-6.37-23.18-9.79-7.4-4-14.55-8.41-21.65-12.88-6.79-4.94-13.37-10.17-20-15.25-6.18-5.68-12.11-11.63-18.12-17.42a281.5,281.5,0,0,1-53.34-83.81C5.53,319.92-.67,286.81-1.3,253.68l1-24.86C.59,220.57,2,212.38,3,204.11c1.49-8.17,3.55-16.26,5.33-24.42,2.3-8,5.14-15.87,7.55-23.92,11.33-31.51,29.06-61.32,53-85.43,23.8-24.27,53.45-42.4,85-54,8-2.53,16-5.35,24-7.55,8.18-1.84,16.29-4,24.49-5.51L227.25.06l25-1.13C318.58-1.38,386.71,24,432.68,73.22,479.13,121.5,505.8,186.56,509,253.68Zm-31,0c1.83-29.83-3.7-60.07-14.92-87.93A216.17,216.17,0,0,0,414,91.88L397.11,77.12l-18.23-13c-6.4-3.82-12.69-7.86-19.15-11.57-6.72-3.23-13.31-6.77-20.12-9.82a224.19,224.19,0,0,0-87.38-18.31,205.37,205.37,0,0,0-86.89,19.5c-27,12.57-51,30.34-72,50.85-20.83,20.72-39,44.57-51.9,71.61-2.89,6.87-6,13.73-8.44,20.8-2,7.2-4.36,14.37-6.19,21.66-1.29,7.4-2.57,14.83-3.64,22.28l-1.41,22.58c-1,60.4,24.55,121.1,69,161.46l17.1,14.45,18.12,13c6.49,3.65,12.68,7.76,19.08,11.54l19.75,10.52c26.76,13.33,57.4,20.25,87.4,17.15l22.19-3c7.27-1.63,14.46-3.34,21.68-4.67l21.28-5.71,20.78-7.27c27.35-10.54,53.45-26,74.52-47,21.35-20.89,35.87-47.6,46.3-74.82s17.42-56,19.08-85.63Z" transform="translate(1.3 1.07)"/><path class="cls-2" d="M268.64,144.43c-67.13,0-101,48.13-101,88.27,0,24.3,9.2,45.92,28.93,54,3.24,1.33,6.14,0,7.08-3.53.65-2.47,2.2-8.73,2.89-11.34.94-3.54.58-4.78-2-7.88-5.69-6.71-9.33-15.39-9.33-27.7,0-35.7,26.72-67.67,69.57-67.67,37.94,0,58.79,23.18,58.79,54.14,0,40.74-18,75.13-44.79,75.13-14.78,0-25.84-12.22-22.3-27.22,4.24-17.9,12.47-37.21,12.47-50.14,0-11.56-6.21-21.21-19.05-21.21-15.11,0-27.25,15.63-27.25,36.57a54.37,54.37,0,0,0,4.51,22.36s-15.46,65.52-18.17,77c-5.4,22.85-.81,50.86-.42,53.69a1.88,1.88,0,0,0,3.36.82c1.39-1.82,19.39-24,25.51-46.24,1.73-6.28,9.94-38.83,9.94-38.83,4.91,9.37,19.26,17.6,34.52,17.6,45.41,0,76.23-41.4,76.23-96.82C358.08,183.46,322.58,144.43,268.64,144.43Z" transform="translate(1.3 1.07)"/></svg>