<svg id="Layer_1" data-name="Layer 1" xmlns="http://www.w3.org/2000/svg" viewBox="0 0 446.62 377.81"><defs><style>.cls-1,.cls-6,.cls-9{opacity:0.6;}.cls-2,.cls-9{fill:#4d565e;}.cls-10,.cls-11,.cls-2,.cls-3,.cls-4,.cls-6,.cls-9{fill-rule:evenodd;}.cls-3{fill:#343b42;}.cls-4,.cls-5{fill:#e6e6e6;}.cls-6{fill:#f3eed9;}.cls-7{fill:gray;}.cls-8{fill:#f77b55;}.cls-10{fill:#e6e5e5;}.cls-11{fill:#363f48;}</style></defs><title>card1</title><g id="Laptop" class="cls-1"><path class="cls-2" d="M99.72,203.67h278A10.31,10.31,0,0,1,388,214V404H89.34V214a10.4,10.4,0,0,1,10.38-10.38Z" transform="translate(-42.25 -75.19)"/><path class="cls-3" d="M43.16,438.7H434.32c1.06,0,.85-.85-.43-1.8l-42-32.3a8.32,8.32,0,0,0-4.35-1.8H90a8.3,8.3,0,0,0-4.34,1.8l-42,32.3c-1.27,1-1.49,1.8-.42,1.8Z" transform="translate(-42.25 -75.19)"/><path class="cls-2" d="M44.64,436.37H432.84c2.86,0,3.18,2.44.63,5.4l-5.29,5.93c-2.65,3-7.1,5.3-10.06,5.3H59.37c-3,0-7.41-2.33-10.06-5.3L44,441.77c-2.54-3-2.33-5.4.64-5.4Z" transform="translate(-42.25 -75.19)"/><polygon class="cls-4" points="166.04 345.5 182.46 345.5 210.52 345.5 226.94 345.5 236.16 355.57 201.31 355.57 191.67 355.57 156.82 355.57 166.04 345.5"/><rect class="cls-5" x="56.52" y="141.4" width="279.94" height="177.2"/></g><path class="cls-6" d="M396.08,271.24a93,93,0,0,0,92.78-92.78c0-51.05-41.73-92.68-92.78-92.68s-92.79,41.63-92.79,92.68a93,93,0,0,0,92.79,92.78Z" transform="translate(-42.25 -75.19)"/><g id="Codes" class="cls-1"><rect class="cls-7" x="76.01" y="175.08" width="154.53" height="8.79"/><rect class="cls-7" x="166.14" y="192.35" width="91.62" height="7.52"/><rect class="cls-7" x="81.41" y="208.23" width="91.52" height="7.52"/><rect class="cls-7" x="81.41" y="241.49" width="91.52" height="7.52"/><rect class="cls-7" x="81.41" y="254.73" width="91.52" height="7.63"/><rect class="cls-8" x="180.87" y="254.73" width="28.91" height="7.63"/><rect class="cls-7" x="219.84" y="254.73" width="28.92" height="7.63"/><rect class="cls-7" x="183.3" y="241.92" width="65.45" height="7.52"/><rect class="cls-7" x="193.37" y="208.23" width="49.36" height="7.52"/><rect class="cls-7" x="87.87" y="192.35" width="26.48" height="7.52"/><rect class="cls-8" x="125.79" y="192.35" width="26.48" height="7.52"/><rect class="cls-8" x="247.38" y="175.08" width="23.62" height="8.79"/><rect class="cls-7" x="81.41" y="273.37" width="29.24" height="7.52"/><rect class="cls-8" x="120.39" y="273.37" width="29.23" height="7.52"/><rect class="cls-7" x="162.44" y="273.37" width="47.34" height="7.52"/></g><path class="cls-9" d="M333.6,182.29v-7.72l44.45-18.88v8.24l-35.19,14.42,35.19,14.76v8.24Zm49.6,30.37,19.57-69.33h6.69l-19.56,69.33Zm75.69-30.37-44.28,19V193.1l35-14.76-35-14.42v-8.24l44.28,18.88Z" transform="translate(-42.25 -75.19)"/><g id="Gears" class="cls-1"><path class="cls-4" d="M101.31,143.72a26.53,26.53,0,0,1,8.16,6.78l10.17-3.71,5.72,15.78-10.17,3.71a22.79,22.79,0,0,1-.42,5.3,25.45,25.45,0,0,1-1.38,5.08l8.26,7-10.8,12.82-8.26-6.89a26.69,26.69,0,0,1-10,3.6l-1.91,10.59L74.3,200.91l1.8-10.7a26.63,26.63,0,0,1-8.16-6.78l-10.06,3.71-5.82-15.78,10.17-3.71a30.51,30.51,0,0,1,.42-5.29,25.52,25.52,0,0,1,1.48-5.08l-8.37-7,10.81-12.82,8.26,7a26.48,26.48,0,0,1,10-3.71l1.91-10.59L103.22,133Z" transform="translate(-42.25 -75.19)"/><path class="cls-10" d="M212.74,109a38.93,38.93,0,0,1,5.19,14.72l15.57,3-4.56,24-15.57-2.86a42.7,42.7,0,0,1-4.45,6.35,38.7,38.7,0,0,1-5.61,5.4l5.19,14.93-23.19,8.16-5.19-14.94a37.89,37.89,0,0,1-15.25-2.86l-10.38,12-18.64-16,10.38-12A38.92,38.92,0,0,1,141,134.18l-15.57-2.86L130,107.18,145.59,110a42.91,42.91,0,0,1,4.45-6.35,39.62,39.62,0,0,1,5.72-5.4l-5.3-14.93,23.2-8.16,5.19,14.93A40.71,40.71,0,0,1,194.2,93l10.27-12,18.64,16Z" transform="translate(-42.25 -75.19)"/><path class="cls-11" d="M90.19,158.76a8.33,8.33,0,0,1-2.86,16.42,8.33,8.33,0,1,1,2.86-16.42Zm1.38-8A16.51,16.51,0,1,1,72.5,164.16a16.49,16.49,0,0,1,19.07-13.45Z" transform="translate(-42.25 -75.19)"/><path class="cls-11" d="M187.53,119.67a12.24,12.24,0,1,1-17.37,1.27,12.24,12.24,0,0,1,17.37-1.27Zm7.73-9a24.15,24.15,0,1,1-34.11,2.54,24.14,24.14,0,0,1,34.11-2.54Z" transform="translate(-42.25 -75.19)"/></g></svg>