<?xml version="1.0" encoding="utf-8"?>
<!-- Generator: Adobe Illustrator 21.0.2, SVG Export Plug-In . SVG Version: 6.00 Build 0)  -->
<svg version="1.1" id="Layer_1" xmlns="http://www.w3.org/2000/svg" xmlns:xlink="http://www.w3.org/1999/xlink" x="0px" y="0px"
	 viewBox="0 0 100 125" style="enable-background:new 0 0 100 125;" xml:space="preserve">
<style type="text/css">
	.st0{filter:url(#Adobe_OpacityMaskFilter);}
	.st1{fill:#FFFFFF;}
	.st2{opacity:0.6;mask:url(#Layer_1_2_);}
	.st3{fill:#6D482D;}
	.st4{fill:#E5E5E5;}
	.st5{opacity:0.5;fill:#757575;enable-background:new    ;}
	.st6{fill:#3F3F3F;}
	.st7{fill:#F7F7F7;}
	.st8{fill:#4FB2AF;}
	.st9{fill:#F2EBD9;}
	.st10{fill:#27BEC4;}
	.st11{fill:#73CACC;}
	.st12{fill:#63CBA2;}
	.st13{fill:#B3549C;}
	.st14{opacity:0.2;fill:url(#SVGID_1_);enable-background:new    ;}
	.st15{fill:#C15A3A;}
	.st16{fill:#CCCCCC;}
	.st17{fill:#E07E53;}
	.st18{opacity:0.6;fill:#CCCCCC;enable-background:new    ;}
</style>
<g id="Layer_2">
</g>
<defs>
	<filter id="Adobe_OpacityMaskFilter" filterUnits="userSpaceOnUse" x="0" y="35.7" width="100" height="44.9">
		<feColorMatrix  type="matrix" values="1 0 0 0 0  0 1 0 0 0  0 0 1 0 0  0 0 0 1 0"/>
	</filter>
</defs>
<mask maskUnits="userSpaceOnUse" x="0" y="35.7" width="100" height="44.9" id="Layer_1_2_">
	<g class="st0">
		<rect x="10" y="27.7" class="st1" width="82.7" height="64.5"/>
	</g>
</mask>
<g id="Layer_1_1_" class="st2">
	<g>
		<g>
			<g>
				<rect y="77.5" class="st3" width="100" height="3.1"/>
			</g>
		</g>
		<g>
			<g>
				<g>
					<g>
						<g>
							<g>
								<g>
									<g>
										<g>
											<rect x="44.2" y="65.8" class="st4" width="10.7" height="9"/>
											<rect x="44.2" y="66.7" class="st5" width="10.7" height="4.4"/>
											<path class="st6" d="M77.6,65.8v-28c0-1.1-1-2.1-2.2-2.1H23.6c-1.2,0-2.2,0.9-2.2,2.1v28H77.6z"/>
											<path class="st7" d="M21.4,68.2c0,1.1,1,2.1,2.2,2.1h51.8c1.2,0,2.2-0.9,2.2-2.1v-2.4H21.4V68.2z"/>
											<rect x="23.7" y="37.6" class="st8" width="51.7" height="26.3"/>
											<g>
												<ellipse class="st4" cx="49.5" cy="68.1" rx="1" ry="1"/>
											</g>
											<polygon class="st7" points="57.9,75.7 54.8,74.7 44.2,74.7 41.1,75.7 40.6,77 58.4,77 											"/>
											<g>
												<rect x="23.7" y="37.6" class="st9" width="51.7" height="1.5"/>
												<g>
													<polygon class="st10" points="38.7,39.1 32.2,39.1 32.8,38 38.1,38 													"/>
													<polygon class="st11" points="35,39.1 28.6,39.1 29.1,38 34.4,38 													"/>
												</g>
												<g>
													<ellipse class="st12" cx="24.7" cy="38.3" rx="0.5" ry="0.4"/>
													<ellipse class="st13" cx="26.2" cy="38.3" rx="0.5" ry="0.4"/>
													<ellipse class="st6" cx="27.7" cy="38.3" rx="0.5" ry="0.4"/>
												</g>
											</g>
										</g>
										<polygon class="st9" points="68.5,48.8 67.5,47.9 67.3,49.3 67.7,49 68,49.8 68.4,49.6 68.1,48.8 										"/>
									</g>
								</g>
								
									<linearGradient id="SVGID_1_" gradientUnits="userSpaceOnUse" x1="62.5644" y1="-259.8035" x2="46.1969" y2="-307.3382" gradientTransform="matrix(1 0 0 -1 0 -260)">
									<stop  offset="0" style="stop-color:#B0A269"/>
									<stop  offset="0.1249" style="stop-color:#B4A771"/>
									<stop  offset="0.3236" style="stop-color:#C1B689"/>
									<stop  offset="0.5714" style="stop-color:#D4CDAE"/>
									<stop  offset="0.8559" style="stop-color:#F0EDE2"/>
									<stop  offset="1" style="stop-color:#FFFFFF"/>
								</linearGradient>
								<polygon class="st14" points="23.7,63.9 23.7,37.6 75.4,37.6 								"/>
							</g>
						</g>
					</g>
					<g>
						<g>
							<g>
								<rect x="49.1" y="75" class="st4" width="37.7" height="1.3"/>
								<rect x="49.7" y="76.3" class="st7" width="36.4" height="0.8"/>
								<g>
									<g>
										<rect x="50.4" y="74.6" class="st4" width="1.4" height="0.3"/>
									</g>
									<g>
										<rect x="52.5" y="74.6" class="st4" width="1.4" height="0.3"/>
									</g>
									<g>
										<rect x="54.6" y="74.6" class="st4" width="1.4" height="0.3"/>
									</g>
									<g>
										<rect x="56.7" y="74.6" class="st4" width="16.1" height="0.3"/>
									</g>
									<g>
										<rect x="73.5" y="74.6" class="st4" width="1.4" height="0.3"/>
									</g>
									<g>
										<rect x="75.6" y="74.6" class="st4" width="1.4" height="0.3"/>
									</g>
									<g>
										<rect x="77.7" y="74.6" class="st4" width="1.4" height="0.3"/>
									</g>
									<g>
										<rect x="79.8" y="74.6" class="st4" width="1.4" height="0.3"/>
									</g>
									<g>
										<rect x="81.9" y="74.6" class="st4" width="1.4" height="0.3"/>
									</g>
									<g>
										<rect x="84" y="74.6" class="st4" width="1.4" height="0.3"/>
									</g>
								</g>
							</g>
						</g>
					</g>
					<g>
						<g>
							<g>
								<g>
									<g>
										<rect x="18.8" y="77.1" class="st15" width="3.4" height="0.5"/>
										<rect x="18.8" y="77.1" class="st16" width="1.6" height="0.5"/>
										<path class="st17" d="M26.8,71.6c-0.8-0.5-1.9-0.2-2.4,0.6c-0.6,0.8-0.4,1.9,0.4,2.3c0.8,0.5,1.9,0.2,2.4-0.6
											C27.8,73.2,27.6,72.1,26.8,71.6z M26.4,73.5c-0.3,0.5-0.9,0.6-1.4,0.3c-0.4-0.3-0.6-0.9-0.2-1.3c0.3-0.5,0.9-0.6,1.4-0.3
											C26.6,72.4,26.7,73,26.4,73.5z"/>
										<path class="st17" d="M19.1,77.3H22c2.2-0.6,3.9-2.7,3.9-5.2c0-0.5-0.1-0.9-0.2-1.3H15.4c-0.1,0.4-0.2,0.9-0.2,1.3
											C15.2,74.6,16.8,76.7,19.1,77.3z"/>
										<path class="st18" d="M20.5,70.8h-5.1c-0.1,0.4-0.2,0.9-0.2,1.3c0,2.5,1.6,4.5,3.9,5.2h1.4V70.8z"/>
									</g>
									<g>
										<g>
											<path class="st7" d="M18.9,65.2c-0.3,0.5-0.5,1.2-0.3,1.8c0.1,0.3,0.4,0.6,0.6,0.9c0.2,0.5,0,1-0.3,1.4
												c-0.1,0.1,0.1,0.3,0.3,0.1c0.4-0.5,0.5-1.1,0.3-1.7c-0.1-0.3-0.4-0.6-0.6-0.9c-0.2-0.5,0.1-1,0.3-1.4
												C19.3,65.2,19,65.1,18.9,65.2L18.9,65.2z"/>
										</g>
										<g>
											<path class="st7" d="M20.6,65.2c-0.3,0.5-0.5,1.2-0.3,1.8c0.1,0.3,0.4,0.6,0.6,0.9c0.2,0.5,0,1-0.3,1.4
												c-0.1,0.1,0.1,0.3,0.3,0.1c0.4-0.5,0.5-1.1,0.3-1.7c-0.1-0.3-0.4-0.6-0.6-0.9c-0.2-0.5,0.1-1,0.3-1.4
												C21,65.2,20.7,65.1,20.6,65.2L20.6,65.2z"/>
										</g>
										<g>
											<path class="st7" d="M22.5,65.2c-0.3,0.5-0.5,1.2-0.3,1.8c0.1,0.3,0.4,0.6,0.6,0.9c0.2,0.5,0,1-0.3,1.4
												c-0.1,0.1,0.1,0.3,0.3,0.1c0.4-0.5,0.5-1.1,0.3-1.7c-0.1-0.3-0.4-0.6-0.6-0.9c-0.2-0.5,0.1-1,0.3-1.4
												C22.9,65.2,22.6,65.1,22.5,65.2L22.5,65.2z"/>
										</g>
									</g>
								</g>
							</g>
						</g>
					</g>
				</g>
			</g>
		</g>
	</g>
</g>
</svg>
